<mxfile host="app.diagrams.net" modified="2021-12-16T22:34:37.425Z" agent="5.0 (X11)" etag="PDfwcFMCnXmjlaFutX6Z" version="15.9.6" type="github">
  <diagram id="LLFjFS0imtfJhxgkr9Xb" name="Page-1">
    <mxGraphModel dx="5160" dy="3351" grid="0" gridSize="10" guides="1" tooltips="1" connect="1" arrows="1" fold="1" page="0" pageScale="1" pageWidth="850" pageHeight="1100" math="0" shadow="0">
      <root>
        <mxCell id="0" />
        <mxCell id="1" parent="0" />
        <mxCell id="cvQm_BtGMacaFVqX-ueh-124" style="rounded=1;sketch=0;orthogonalLoop=1;jettySize=auto;elbow=vertical;html=1;entryX=0.5;entryY=0;entryDx=0;entryDy=0;shadow=0;fontSize=12;fontColor=#46495D;edgeStyle=orthogonalEdgeStyle;strokeColor=#788AA3;" edge="1" parent="1" source="cvQm_BtGMacaFVqX-ueh-300" target="cvQm_BtGMacaFVqX-ueh-249">
          <mxGeometry relative="1" as="geometry">
            <mxPoint x="-616" y="-1147" as="sourcePoint" />
            <mxPoint x="-408.5" y="-995" as="targetPoint" />
          </mxGeometry>
        </mxCell>
        <mxCell id="cvQm_BtGMacaFVqX-ueh-142" style="edgeStyle=orthogonalEdgeStyle;rounded=1;sketch=0;orthogonalLoop=1;jettySize=auto;html=1;entryX=0.5;entryY=0;entryDx=0;entryDy=0;shadow=0;fontSize=12;fontColor=#46495D;elbow=vertical;strokeColor=#788AA3;" edge="1" parent="1" source="cvQm_BtGMacaFVqX-ueh-300" target="cvQm_BtGMacaFVqX-ueh-261">
          <mxGeometry relative="1" as="geometry">
            <mxPoint x="-1185" y="-1068.7499999999995" as="sourcePoint" />
            <mxPoint x="-1350.5" y="-989" as="targetPoint" />
          </mxGeometry>
        </mxCell>
        <mxCell id="cvQm_BtGMacaFVqX-ueh-114" style="edgeStyle=elbowEdgeStyle;rounded=1;sketch=0;orthogonalLoop=1;jettySize=auto;elbow=vertical;html=1;shadow=0;fontSize=12;fontColor=#46495D;strokeColor=#788AA3;exitX=0.25;exitY=0;exitDx=0;exitDy=0;entryX=0.737;entryY=1.083;entryDx=0;entryDy=0;entryPerimeter=0;" edge="1" parent="1" source="cvQm_BtGMacaFVqX-ueh-190" target="cvQm_BtGMacaFVqX-ueh-318">
          <mxGeometry relative="1" as="geometry">
            <mxPoint x="-684" y="-817" as="sourcePoint" />
            <mxPoint x="-733.5" y="-887" as="targetPoint" />
          </mxGeometry>
        </mxCell>
        <mxCell id="cvQm_BtGMacaFVqX-ueh-125" style="edgeStyle=orthogonalEdgeStyle;rounded=1;sketch=0;orthogonalLoop=1;jettySize=auto;html=1;entryX=0.75;entryY=0;entryDx=0;entryDy=0;shadow=0;fontSize=12;fontColor=#46495D;elbow=vertical;strokeColor=#788AA3;exitX=0.5;exitY=1;exitDx=0;exitDy=0;" edge="1" parent="1" source="cvQm_BtGMacaFVqX-ueh-249" target="cvQm_BtGMacaFVqX-ueh-190">
          <mxGeometry relative="1" as="geometry">
            <mxPoint x="-408.478260869565" y="-834.9999999999998" as="sourcePoint" />
            <mxPoint x="-403.99999999999955" y="-734" as="targetPoint" />
          </mxGeometry>
        </mxCell>
        <mxCell id="cvQm_BtGMacaFVqX-ueh-321" style="edgeStyle=orthogonalEdgeStyle;curved=0;rounded=1;sketch=0;orthogonalLoop=1;jettySize=auto;html=1;exitX=0.75;exitY=0;exitDx=0;exitDy=0;entryX=0.205;entryY=0.99;entryDx=0;entryDy=0;entryPerimeter=0;fontSize=25;fontColor=#46495D;strokeColor=#788AA3;fillColor=#B2C9AB;" edge="1" parent="1" source="cvQm_BtGMacaFVqX-ueh-136" target="cvQm_BtGMacaFVqX-ueh-318">
          <mxGeometry relative="1" as="geometry" />
        </mxCell>
        <mxCell id="cvQm_BtGMacaFVqX-ueh-136" value="&lt;Player /&gt;" style="swimlane;sketchStyle=rough;fontSize=20;startSize=45;fontColor=#46495D;glass=1;rounded=0;shadow=1;fillColor=#B2C9AB;strokeColor=#788AA3;" vertex="1" parent="1">
          <mxGeometry x="-1640" y="-734" width="602" height="849" as="geometry">
            <mxRectangle x="-1640" y="-734" width="260" height="30" as="alternateBounds" />
          </mxGeometry>
        </mxCell>
        <mxCell id="cvQm_BtGMacaFVqX-ueh-137" value="state" style="swimlane;sketchStyle=rough;fontSize=20;fontColor=#46495D;swimlaneLine=1;glass=0;rounded=0;shadow=0;startSize=23;fillColor=#B2C9AB;strokeColor=#788AA3;" vertex="1" parent="cvQm_BtGMacaFVqX-ueh-136">
          <mxGeometry x="86" y="76" width="430" height="99" as="geometry" />
        </mxCell>
        <mxCell id="cvQm_BtGMacaFVqX-ueh-244" value="&lt;div&gt;playerNumber: null,&lt;/div&gt;&lt;div&gt;totalScore: 0,&lt;/div&gt;&lt;div&gt;currentScore: 0&lt;br&gt;&lt;/div&gt;" style="text;html=1;align=left;verticalAlign=middle;resizable=0;points=[];autosize=1;strokeColor=none;fillColor=none;fontColor=#46495D;" vertex="1" parent="cvQm_BtGMacaFVqX-ueh-137">
          <mxGeometry x="16" y="36" width="113" height="46" as="geometry" />
        </mxCell>
        <mxCell id="cvQm_BtGMacaFVqX-ueh-139" value="functions" style="swimlane;sketchStyle=rough;fontSize=20;fontColor=#46495D;swimlaneLine=1;glass=0;rounded=0;shadow=0;startSize=23;fillColor=#B2C9AB;strokeColor=#788AA3;" vertex="1" parent="cvQm_BtGMacaFVqX-ueh-136">
          <mxGeometry x="86" y="199" width="430" height="73" as="geometry" />
        </mxCell>
        <mxCell id="cvQm_BtGMacaFVqX-ueh-175" value="render" style="swimlane;sketchStyle=rough;fontSize=20;fontColor=#46495D;swimlaneLine=1;glass=0;rounded=0;shadow=0;startSize=23;fillColor=#B2C9AB;strokeColor=#788AA3;" vertex="1" parent="cvQm_BtGMacaFVqX-ueh-136">
          <mxGeometry x="47" y="299" width="508" height="516" as="geometry" />
        </mxCell>
        <mxCell id="cvQm_BtGMacaFVqX-ueh-148" value="&lt;div className=&quot;player&quot; /&gt;" style="swimlane;shadow=0;glass=0;labelBackgroundColor=none;sketchStyle=rough;fontSize=12;fontColor=#46495D;fillColor=none;startSize=23;strokeColor=#788AA3;align=center;verticalAlign=middle;" vertex="1" parent="cvQm_BtGMacaFVqX-ueh-175">
          <mxGeometry x="38" y="50" width="432" height="435" as="geometry">
            <mxRectangle x="-545" y="-272" width="73" height="23" as="alternateBounds" />
          </mxGeometry>
        </mxCell>
        <mxCell id="cvQm_BtGMacaFVqX-ueh-149" value="&lt;div className=&quot;player-top&quot; /&gt;" style="swimlane;shadow=0;glass=0;labelBackgroundColor=none;sketchStyle=rough;fontSize=12;fontColor=#46495D;fillColor=none;startSize=23;strokeColor=#788AA3;" vertex="1" parent="cvQm_BtGMacaFVqX-ueh-148">
          <mxGeometry x="62" y="48" width="308" height="144" as="geometry">
            <mxRectangle x="29" y="37" width="282" height="23" as="alternateBounds" />
          </mxGeometry>
        </mxCell>
        <mxCell id="cvQm_BtGMacaFVqX-ueh-150" value="&lt;span className=&quot;player-title&quot; /&gt;" style="swimlane;shadow=0;glass=0;labelBackgroundColor=none;sketchStyle=rough;fontSize=12;fontColor=#46495D;fillColor=none;startSize=23;strokeColor=#788AA3;" vertex="1" collapsed="1" parent="cvQm_BtGMacaFVqX-ueh-149">
          <mxGeometry x="35" y="36" width="238" height="23" as="geometry">
            <mxRectangle x="24" y="36" width="192" height="74" as="alternateBounds" />
          </mxGeometry>
        </mxCell>
        <mxCell id="cvQm_BtGMacaFVqX-ueh-151" value="&lt;span className=&quot;total-score&quot; /&gt;" style="swimlane;shadow=0;glass=0;labelBackgroundColor=none;sketchStyle=rough;fontSize=12;fontColor=#46495D;fillColor=none;startSize=23;strokeColor=#788AA3;" vertex="1" collapsed="1" parent="cvQm_BtGMacaFVqX-ueh-149">
          <mxGeometry x="34" y="107" width="240" height="23" as="geometry">
            <mxRectangle x="-782" y="-344" width="192" height="74" as="alternateBounds" />
          </mxGeometry>
        </mxCell>
        <mxCell id="cvQm_BtGMacaFVqX-ueh-158" value="&lt;span className=&quot;player-turn&quot; /&gt;" style="swimlane;shadow=0;glass=0;labelBackgroundColor=none;sketchStyle=rough;fontSize=12;fontColor=#46495D;fillColor=none;startSize=23;strokeColor=#788AA3;" vertex="1" collapsed="1" parent="cvQm_BtGMacaFVqX-ueh-149">
          <mxGeometry x="34.5" y="71" width="239" height="23" as="geometry">
            <mxRectangle x="38" y="36" width="192" height="74" as="alternateBounds" />
          </mxGeometry>
        </mxCell>
        <mxCell id="cvQm_BtGMacaFVqX-ueh-155" value="&lt;div className=&quot;player-bottom&quot; /&gt;" style="swimlane;shadow=0;glass=0;labelBackgroundColor=none;sketchStyle=rough;fontSize=12;fontColor=#46495D;fillColor=none;startSize=23;strokeColor=#788AA3;" vertex="1" parent="cvQm_BtGMacaFVqX-ueh-148">
          <mxGeometry x="23.5" y="228" width="385" height="176" as="geometry">
            <mxRectangle x="14" y="201" width="282" height="23" as="alternateBounds" />
          </mxGeometry>
        </mxCell>
        <mxCell id="cvQm_BtGMacaFVqX-ueh-156" value="&lt;div className=&quot;current-score&quot; /&gt;" style="swimlane;shadow=0;glass=0;labelBackgroundColor=none;sketchStyle=rough;fontSize=12;fontColor=#46495D;fillColor=none;startSize=23;strokeColor=#788AA3;" vertex="1" parent="cvQm_BtGMacaFVqX-ueh-155">
          <mxGeometry x="18.5" y="42" width="348" height="115" as="geometry">
            <mxRectangle x="18.5" y="42" width="230" height="23" as="alternateBounds" />
          </mxGeometry>
        </mxCell>
        <mxCell id="cvQm_BtGMacaFVqX-ueh-157" value="&lt;button className=&quot;current-score-title&quot; /&gt;" style="swimlane;shadow=0;glass=0;labelBackgroundColor=none;sketchStyle=rough;fontSize=12;fontColor=#46495D;fillColor=none;startSize=23;strokeColor=#788AA3;" vertex="1" collapsed="1" parent="cvQm_BtGMacaFVqX-ueh-156">
          <mxGeometry x="23" y="40" width="302" height="23" as="geometry">
            <mxRectangle x="-782" y="-344" width="192" height="74" as="alternateBounds" />
          </mxGeometry>
        </mxCell>
        <mxCell id="cvQm_BtGMacaFVqX-ueh-159" value="&lt;button className=&quot;current-score-number&quot; /&gt;" style="swimlane;shadow=0;glass=0;labelBackgroundColor=none;sketchStyle=rough;fontSize=12;fontColor=#46495D;fillColor=none;startSize=23;strokeColor=#788AA3;" vertex="1" collapsed="1" parent="cvQm_BtGMacaFVqX-ueh-156">
          <mxGeometry x="23" y="77" width="302" height="23" as="geometry">
            <mxRectangle x="-782" y="-344" width="192" height="74" as="alternateBounds" />
          </mxGeometry>
        </mxCell>
        <mxCell id="cvQm_BtGMacaFVqX-ueh-190" value="&lt;GameTools /&gt;" style="swimlane;sketchStyle=rough;fontSize=20;startSize=45;fontColor=#46495D;glass=1;rounded=0;shadow=1;fillColor=#B2C9AB;strokeColor=#788AA3;" vertex="1" parent="1">
          <mxGeometry x="-732" y="-734" width="602" height="859" as="geometry">
            <mxRectangle x="-1091" y="-1205" width="260" height="30" as="alternateBounds" />
          </mxGeometry>
        </mxCell>
        <mxCell id="cvQm_BtGMacaFVqX-ueh-191" value="state" style="swimlane;sketchStyle=rough;fontSize=20;fontColor=#46495D;swimlaneLine=1;glass=0;rounded=0;shadow=0;startSize=23;fillColor=#B2C9AB;strokeColor=#788AA3;" vertex="1" parent="cvQm_BtGMacaFVqX-ueh-190">
          <mxGeometry x="86" y="76" width="430" height="99" as="geometry" />
        </mxCell>
        <mxCell id="cvQm_BtGMacaFVqX-ueh-163" value="&lt;div&gt;&lt;font style=&quot;font-size: 12px&quot;&gt;dices: [null, null],&lt;/font&gt;&lt;/div&gt;&lt;div&gt;&lt;font style=&quot;font-size: 12px&quot;&gt;scoreSum: 0&lt;/font&gt;&lt;/div&gt;" style="text;html=1;align=left;verticalAlign=middle;resizable=0;points=[];autosize=1;strokeColor=none;fillColor=none;fontColor=#46495D;" vertex="1" parent="cvQm_BtGMacaFVqX-ueh-191">
          <mxGeometry x="16" y="35" width="98" height="32" as="geometry" />
        </mxCell>
        <mxCell id="cvQm_BtGMacaFVqX-ueh-192" value="functions" style="swimlane;sketchStyle=rough;fontSize=20;fontColor=#46495D;swimlaneLine=1;glass=0;rounded=0;shadow=0;startSize=23;fillColor=#B2C9AB;strokeColor=#788AA3;" vertex="1" parent="cvQm_BtGMacaFVqX-ueh-190">
          <mxGeometry x="86" y="199" width="430" height="96" as="geometry" />
        </mxCell>
        <mxCell id="cvQm_BtGMacaFVqX-ueh-166" value="&lt;div&gt;rollDices()&lt;/div&gt;&lt;div&gt;&lt;br&gt;&lt;/div&gt;" style="text;html=1;align=left;verticalAlign=middle;resizable=0;points=[];autosize=1;strokeColor=none;fillColor=none;fontColor=#46495D;" vertex="1" parent="cvQm_BtGMacaFVqX-ueh-192">
          <mxGeometry x="9" y="36" width="64" height="32" as="geometry" />
        </mxCell>
        <mxCell id="cvQm_BtGMacaFVqX-ueh-193" value="render" style="swimlane;sketchStyle=rough;fontSize=20;fontColor=#46495D;swimlaneLine=1;glass=0;rounded=0;shadow=0;startSize=23;fillColor=#B2C9AB;strokeColor=#788AA3;" vertex="1" parent="cvQm_BtGMacaFVqX-ueh-190">
          <mxGeometry x="47" y="329" width="508" height="509" as="geometry" />
        </mxCell>
        <mxCell id="cvQm_BtGMacaFVqX-ueh-95" value="&lt;div className=&quot;game-tools&quot; /&gt;" style="swimlane;shadow=0;glass=0;labelBackgroundColor=none;sketchStyle=rough;fontSize=12;fontColor=#46495D;fillColor=none;startSize=23;strokeColor=#788AA3;" vertex="1" parent="cvQm_BtGMacaFVqX-ueh-193">
          <mxGeometry x="37" y="67" width="434" height="423" as="geometry">
            <mxRectangle x="-545" y="-272" width="73" height="23" as="alternateBounds" />
          </mxGeometry>
        </mxCell>
        <mxCell id="cvQm_BtGMacaFVqX-ueh-99" value="&lt;div className=&quot;dices&quot; /&gt;" style="swimlane;shadow=0;glass=0;labelBackgroundColor=none;sketchStyle=rough;fontSize=12;fontColor=#46495D;fillColor=none;startSize=23;strokeColor=#788AA3;" vertex="1" parent="cvQm_BtGMacaFVqX-ueh-95">
          <mxGeometry x="102" y="128" width="230" height="106" as="geometry">
            <mxRectangle x="-1002" y="-325" width="282" height="23" as="alternateBounds" />
          </mxGeometry>
        </mxCell>
        <mxCell id="cvQm_BtGMacaFVqX-ueh-100" value="&lt;button className=&quot;dice&quot; /&gt;" style="swimlane;shadow=0;glass=0;labelBackgroundColor=none;sketchStyle=rough;fontSize=12;fontColor=#46495D;fillColor=none;startSize=23;strokeColor=#788AA3;" vertex="1" collapsed="1" parent="cvQm_BtGMacaFVqX-ueh-99">
          <mxGeometry x="18" y="34" width="194" height="23" as="geometry">
            <mxRectangle x="18" y="32" width="192" height="74" as="alternateBounds" />
          </mxGeometry>
        </mxCell>
        <mxCell id="cvQm_BtGMacaFVqX-ueh-101" value="&lt;button className=&quot;dice&quot; /&gt;" style="swimlane;shadow=0;glass=0;labelBackgroundColor=none;sketchStyle=rough;fontSize=12;fontColor=#46495D;fillColor=none;startSize=23;strokeColor=#788AA3;" vertex="1" collapsed="1" parent="cvQm_BtGMacaFVqX-ueh-99">
          <mxGeometry x="18" y="68" width="194" height="23" as="geometry">
            <mxRectangle x="-782" y="-344" width="192" height="74" as="alternateBounds" />
          </mxGeometry>
        </mxCell>
        <mxCell id="cvQm_BtGMacaFVqX-ueh-224" value="&lt;div className=&quot;game-tools-bottom&quot; /&gt;" style="swimlane;shadow=0;glass=0;labelBackgroundColor=none;sketchStyle=rough;fontSize=12;fontColor=#46495D;fillColor=none;startSize=23;strokeColor=#788AA3;" vertex="1" parent="cvQm_BtGMacaFVqX-ueh-95">
          <mxGeometry x="86" y="250" width="262" height="150" as="geometry">
            <mxRectangle x="-1002" y="-325" width="282" height="23" as="alternateBounds" />
          </mxGeometry>
        </mxCell>
        <mxCell id="cvQm_BtGMacaFVqX-ueh-102" value="&lt;button className=&quot;roll-dice&quot; /&gt;" style="swimlane;shadow=0;glass=0;labelBackgroundColor=none;sketchStyle=rough;fontSize=12;fontColor=#46495D;fillColor=none;startSize=23;strokeColor=#788AA3;" vertex="1" collapsed="1" parent="cvQm_BtGMacaFVqX-ueh-224">
          <mxGeometry x="11" y="35" width="240" height="23" as="geometry">
            <mxRectangle x="18" y="32" width="192" height="74" as="alternateBounds" />
          </mxGeometry>
        </mxCell>
        <mxCell id="cvQm_BtGMacaFVqX-ueh-103" value="&lt;button className=&quot;hold&quot; /&gt;" style="swimlane;shadow=0;glass=0;labelBackgroundColor=none;sketchStyle=rough;fontSize=12;fontColor=#46495D;fillColor=none;startSize=23;strokeColor=#788AA3;" vertex="1" collapsed="1" parent="cvQm_BtGMacaFVqX-ueh-224">
          <mxGeometry x="11" y="72.5" width="240" height="23" as="geometry">
            <mxRectangle x="18" y="32" width="192" height="74" as="alternateBounds" />
          </mxGeometry>
        </mxCell>
        <mxCell id="cvQm_BtGMacaFVqX-ueh-222" value="&lt;input className=&quot;final-score&quot; /&gt;" style="swimlane;shadow=0;glass=0;labelBackgroundColor=none;sketchStyle=rough;fontSize=12;fontColor=#46495D;fillColor=none;startSize=23;strokeColor=#788AA3;" vertex="1" collapsed="1" parent="cvQm_BtGMacaFVqX-ueh-224">
          <mxGeometry x="10" y="110" width="242" height="23" as="geometry">
            <mxRectangle x="18" y="32" width="192" height="74" as="alternateBounds" />
          </mxGeometry>
        </mxCell>
        <mxCell id="cvQm_BtGMacaFVqX-ueh-238" value="&lt;div className=&quot;game-tools-top&quot; /&gt;" style="swimlane;shadow=0;glass=0;labelBackgroundColor=none;sketchStyle=rough;fontSize=12;fontColor=#46495D;fillColor=none;startSize=23;strokeColor=#788AA3;" vertex="1" parent="cvQm_BtGMacaFVqX-ueh-95">
          <mxGeometry x="77" y="40" width="280" height="71" as="geometry">
            <mxRectangle x="-1002" y="-325" width="282" height="23" as="alternateBounds" />
          </mxGeometry>
        </mxCell>
        <mxCell id="cvQm_BtGMacaFVqX-ueh-239" value="&lt;button className=&quot;new-game-title&quot; /&gt;" style="swimlane;shadow=0;glass=0;labelBackgroundColor=none;sketchStyle=rough;fontSize=12;fontColor=#46495D;fillColor=none;startSize=23;strokeColor=#788AA3;" vertex="1" collapsed="1" parent="cvQm_BtGMacaFVqX-ueh-238">
          <mxGeometry x="11" y="36" width="258" height="23" as="geometry">
            <mxRectangle x="18" y="32" width="192" height="74" as="alternateBounds" />
          </mxGeometry>
        </mxCell>
        <mxCell id="cvQm_BtGMacaFVqX-ueh-249" value="props" style="swimlane;fontStyle=0;childLayout=stackLayout;horizontal=1;startSize=22;horizontalStack=0;resizeParent=1;resizeParentMax=0;resizeLast=0;collapsible=1;marginBottom=0;rounded=0;shadow=0;glass=0;sketch=0;fontColor=#46495D;strokeColor=#788AA3;fillColor=none;direction=east;" vertex="1" parent="1">
          <mxGeometry x="-486" y="-955" width="178" height="72" as="geometry">
            <mxRectangle x="-370" y="-1080" width="46" height="22" as="alternateBounds" />
          </mxGeometry>
        </mxCell>
        <mxCell id="cvQm_BtGMacaFVqX-ueh-260" value="updatePlayerCurrentScore()" style="text;strokeColor=none;fillColor=none;align=left;verticalAlign=middle;spacingLeft=4;spacingRight=4;overflow=hidden;points=[[0,0.5],[1,0.5]];portConstraint=eastwest;rotatable=0;rounded=0;shadow=1;glass=1;sketch=1;fontColor=#46495D;" vertex="1" parent="cvQm_BtGMacaFVqX-ueh-249">
          <mxGeometry y="22" width="178" height="25" as="geometry" />
        </mxCell>
        <mxCell id="cvQm_BtGMacaFVqX-ueh-258" value="nextPlayerTurn()" style="text;strokeColor=none;fillColor=none;align=left;verticalAlign=middle;spacingLeft=4;spacingRight=4;overflow=hidden;points=[[0,0.5],[1,0.5]];portConstraint=eastwest;rotatable=0;rounded=0;shadow=1;glass=1;sketch=1;fontColor=#46495D;" vertex="1" parent="cvQm_BtGMacaFVqX-ueh-249">
          <mxGeometry y="47" width="178" height="25" as="geometry" />
        </mxCell>
        <mxCell id="cvQm_BtGMacaFVqX-ueh-268" style="edgeStyle=orthogonalEdgeStyle;curved=0;rounded=1;sketch=0;orthogonalLoop=1;jettySize=auto;html=1;entryX=0.25;entryY=0;entryDx=0;entryDy=0;fontColor=#46495D;strokeColor=#788AA3;fillColor=#B2C9AB;" edge="1" parent="1" source="cvQm_BtGMacaFVqX-ueh-261" target="cvQm_BtGMacaFVqX-ueh-136">
          <mxGeometry relative="1" as="geometry" />
        </mxCell>
        <mxCell id="cvQm_BtGMacaFVqX-ueh-261" value="props" style="swimlane;fontStyle=0;childLayout=stackLayout;horizontal=1;startSize=22;horizontalStack=0;resizeParent=1;resizeParentMax=0;resizeLast=0;collapsible=1;marginBottom=0;rounded=0;shadow=0;glass=0;sketch=0;fontColor=#46495D;strokeColor=#788AA3;fillColor=none;direction=east;" vertex="1" parent="1">
          <mxGeometry x="-1471" y="-960" width="178" height="97" as="geometry">
            <mxRectangle x="-370" y="-1080" width="46" height="22" as="alternateBounds" />
          </mxGeometry>
        </mxCell>
        <mxCell id="cvQm_BtGMacaFVqX-ueh-262" value="players[0]" style="text;strokeColor=none;fillColor=none;align=left;verticalAlign=middle;spacingLeft=4;spacingRight=4;overflow=hidden;points=[[0,0.5],[1,0.5]];portConstraint=eastwest;rotatable=0;rounded=0;shadow=1;glass=1;sketch=1;fontColor=#46495D;" vertex="1" parent="cvQm_BtGMacaFVqX-ueh-261">
          <mxGeometry y="22" width="178" height="25" as="geometry" />
        </mxCell>
        <mxCell id="cvQm_BtGMacaFVqX-ueh-264" value="playerNumber" style="text;strokeColor=none;fillColor=none;align=left;verticalAlign=middle;spacingLeft=4;spacingRight=4;overflow=hidden;points=[[0,0.5],[1,0.5]];portConstraint=eastwest;rotatable=0;rounded=0;shadow=1;glass=1;sketch=1;fontColor=#46495D;" vertex="1" parent="cvQm_BtGMacaFVqX-ueh-261">
          <mxGeometry y="47" width="178" height="25" as="geometry" />
        </mxCell>
        <mxCell id="cvQm_BtGMacaFVqX-ueh-263" value="checkWinner()" style="text;strokeColor=none;fillColor=none;align=left;verticalAlign=middle;spacingLeft=4;spacingRight=4;overflow=hidden;points=[[0,0.5],[1,0.5]];portConstraint=eastwest;rotatable=0;rounded=0;shadow=1;glass=1;sketch=1;fontColor=#46495D;" vertex="1" parent="cvQm_BtGMacaFVqX-ueh-261">
          <mxGeometry y="72" width="178" height="25" as="geometry" />
        </mxCell>
        <mxCell id="cvQm_BtGMacaFVqX-ueh-300" value="&lt;GameBoard /&gt;" style="swimlane;fontStyle=0;childLayout=stackLayout;horizontal=1;startSize=30;horizontalStack=0;resizeParent=1;resizeParentMax=0;resizeLast=0;collapsible=1;marginBottom=0;rounded=0;shadow=0;glass=0;sketch=0;strokeColor=#82b366;fillColor=#d5e8d4;fontSize=25;" vertex="1" parent="1">
          <mxGeometry x="-1085" y="-1375" width="408" height="480" as="geometry">
            <mxRectangle x="-1085" y="-1375" width="286" height="30" as="alternateBounds" />
          </mxGeometry>
        </mxCell>
        <mxCell id="cvQm_BtGMacaFVqX-ueh-285" value="state" style="swimlane;fontStyle=0;childLayout=stackLayout;horizontal=1;startSize=30;horizontalStack=0;resizeParent=1;resizeParentMax=0;resizeLast=0;collapsible=1;marginBottom=0;rounded=0;shadow=0;glass=0;sketch=0;strokeColor=#6c8ebf;fillColor=#dae8fc;fontSize=20;" vertex="1" parent="cvQm_BtGMacaFVqX-ueh-300">
          <mxGeometry y="30" width="408" height="150" as="geometry">
            <mxRectangle y="30" width="408" height="30" as="alternateBounds" />
          </mxGeometry>
        </mxCell>
        <mxCell id="cvQm_BtGMacaFVqX-ueh-286" value="playerTurn: 0" style="text;strokeColor=none;fillColor=none;align=left;verticalAlign=middle;spacingLeft=4;spacingRight=4;overflow=hidden;points=[[0,0.5],[1,0.5]];portConstraint=eastwest;rotatable=0;rounded=0;shadow=0;glass=0;sketch=0;fontColor=#46495D;" vertex="1" parent="cvQm_BtGMacaFVqX-ueh-285">
          <mxGeometry y="30" width="408" height="30" as="geometry" />
        </mxCell>
        <mxCell id="cvQm_BtGMacaFVqX-ueh-287" value="	winner: flase" style="text;strokeColor=none;fillColor=none;align=left;verticalAlign=middle;spacingLeft=4;spacingRight=4;overflow=hidden;points=[[0,0.5],[1,0.5]];portConstraint=eastwest;rotatable=0;rounded=0;shadow=0;glass=0;sketch=0;fontColor=#46495D;" vertex="1" parent="cvQm_BtGMacaFVqX-ueh-285">
          <mxGeometry y="60" width="408" height="30" as="geometry" />
        </mxCell>
        <mxCell id="cvQm_BtGMacaFVqX-ueh-289" value="pointsToWin: null" style="text;strokeColor=none;fillColor=none;align=left;verticalAlign=middle;spacingLeft=4;spacingRight=4;overflow=hidden;points=[[0,0.5],[1,0.5]];portConstraint=eastwest;rotatable=0;rounded=0;shadow=0;glass=0;sketch=0;fontColor=#46495D;" vertex="1" parent="cvQm_BtGMacaFVqX-ueh-285">
          <mxGeometry y="90" width="408" height="30" as="geometry" />
        </mxCell>
        <mxCell id="cvQm_BtGMacaFVqX-ueh-288" value="	players: [{currentScore: 0, totalScore: 0}, {currentScore: 0, totalScore: 0}]" style="text;strokeColor=none;fillColor=none;align=left;verticalAlign=middle;spacingLeft=4;spacingRight=4;overflow=hidden;points=[[0,0.5],[1,0.5]];portConstraint=eastwest;rotatable=0;rounded=0;shadow=0;glass=0;sketch=0;fontColor=#46495D;" vertex="1" parent="cvQm_BtGMacaFVqX-ueh-285">
          <mxGeometry y="120" width="408" height="30" as="geometry" />
        </mxCell>
        <mxCell id="cvQm_BtGMacaFVqX-ueh-305" value="callback functions" style="swimlane;fontStyle=0;childLayout=stackLayout;horizontal=1;startSize=30;horizontalStack=0;resizeParent=1;resizeParentMax=0;resizeLast=0;collapsible=1;marginBottom=0;rounded=0;shadow=0;glass=0;sketch=0;strokeColor=#6c8ebf;fillColor=#dae8fc;fontSize=20;" vertex="1" parent="cvQm_BtGMacaFVqX-ueh-300">
          <mxGeometry y="180" width="408" height="150" as="geometry">
            <mxRectangle y="180" width="408" height="30" as="alternateBounds" />
          </mxGeometry>
        </mxCell>
        <mxCell id="cvQm_BtGMacaFVqX-ueh-306" value="checkWinner()" style="text;strokeColor=none;fillColor=none;align=left;verticalAlign=middle;spacingLeft=4;spacingRight=4;overflow=hidden;points=[[0,0.5],[1,0.5]];portConstraint=eastwest;rotatable=0;rounded=0;shadow=0;glass=0;sketch=0;fontColor=#46495D;" vertex="1" parent="cvQm_BtGMacaFVqX-ueh-305">
          <mxGeometry y="30" width="408" height="30" as="geometry" />
        </mxCell>
        <mxCell id="cvQm_BtGMacaFVqX-ueh-307" value="updatePlayerScore()" style="text;strokeColor=none;fillColor=none;align=left;verticalAlign=middle;spacingLeft=4;spacingRight=4;overflow=hidden;points=[[0,0.5],[1,0.5]];portConstraint=eastwest;rotatable=0;rounded=0;shadow=0;glass=0;sketch=0;fontColor=#46495D;" vertex="1" parent="cvQm_BtGMacaFVqX-ueh-305">
          <mxGeometry y="60" width="408" height="30" as="geometry" />
        </mxCell>
        <mxCell id="cvQm_BtGMacaFVqX-ueh-308" value="updateNextPlayerTurn()" style="text;strokeColor=none;fillColor=none;align=left;verticalAlign=middle;spacingLeft=4;spacingRight=4;overflow=hidden;points=[[0,0.5],[1,0.5]];portConstraint=eastwest;rotatable=0;rounded=0;shadow=0;glass=0;sketch=0;fontColor=#46495D;" vertex="1" parent="cvQm_BtGMacaFVqX-ueh-305">
          <mxGeometry y="90" width="408" height="30" as="geometry" />
        </mxCell>
        <mxCell id="cvQm_BtGMacaFVqX-ueh-309" value="setPointToWin()" style="text;strokeColor=none;fillColor=none;align=left;verticalAlign=middle;spacingLeft=4;spacingRight=4;overflow=hidden;points=[[0,0.5],[1,0.5]];portConstraint=eastwest;rotatable=0;rounded=0;shadow=0;glass=0;sketch=0;fontColor=#46495D;" vertex="1" parent="cvQm_BtGMacaFVqX-ueh-305">
          <mxGeometry y="120" width="408" height="30" as="geometry" />
        </mxCell>
        <mxCell id="cvQm_BtGMacaFVqX-ueh-315" value="render" style="swimlane;fontStyle=0;childLayout=stackLayout;horizontal=1;startSize=30;horizontalStack=0;resizeParent=1;resizeParentMax=0;resizeLast=0;collapsible=1;marginBottom=0;rounded=0;shadow=0;glass=0;sketch=0;strokeColor=#6c8ebf;fillColor=#dae8fc;fontSize=20;" vertex="1" parent="cvQm_BtGMacaFVqX-ueh-300">
          <mxGeometry y="330" width="408" height="150" as="geometry">
            <mxRectangle y="330" width="408" height="30" as="alternateBounds" />
          </mxGeometry>
        </mxCell>
        <mxCell id="cvQm_BtGMacaFVqX-ueh-310" value="&lt;div className=&quot;game-board&quot; /&gt;" style="swimlane;fontStyle=0;childLayout=stackLayout;horizontal=1;startSize=30;horizontalStack=0;resizeParent=1;resizeParentMax=0;resizeLast=0;collapsible=1;marginBottom=0;rounded=0;shadow=0;glass=0;sketch=0;strokeColor=#d6b656;fillColor=#fff2cc;fontSize=12;" vertex="1" parent="cvQm_BtGMacaFVqX-ueh-315">
          <mxGeometry y="30" width="408" height="120" as="geometry">
            <mxRectangle y="30" width="408" height="30" as="alternateBounds" />
          </mxGeometry>
        </mxCell>
        <mxCell id="cvQm_BtGMacaFVqX-ueh-316" value="&lt;Player&gt;" style="text;strokeColor=none;fillColor=none;align=left;verticalAlign=middle;spacingLeft=4;spacingRight=4;overflow=hidden;points=[[0,0.5],[1,0.5]];portConstraint=eastwest;rotatable=0;rounded=0;shadow=0;glass=0;sketch=0;fontColor=#46495D;" vertex="1" parent="cvQm_BtGMacaFVqX-ueh-310">
          <mxGeometry y="30" width="408" height="30" as="geometry" />
        </mxCell>
        <mxCell id="cvQm_BtGMacaFVqX-ueh-317" value="&lt;Player&gt;" style="text;strokeColor=none;fillColor=none;align=left;verticalAlign=middle;spacingLeft=4;spacingRight=4;overflow=hidden;points=[[0,0.5],[1,0.5]];portConstraint=eastwest;rotatable=0;rounded=0;shadow=0;glass=0;sketch=0;fontColor=#46495D;" vertex="1" parent="cvQm_BtGMacaFVqX-ueh-310">
          <mxGeometry y="60" width="408" height="30" as="geometry" />
        </mxCell>
        <mxCell id="cvQm_BtGMacaFVqX-ueh-318" value="&lt;GameTools&gt;" style="text;strokeColor=none;fillColor=none;align=left;verticalAlign=middle;spacingLeft=4;spacingRight=4;overflow=hidden;points=[[0,0.5],[1,0.5]];portConstraint=eastwest;rotatable=0;rounded=0;shadow=0;glass=0;sketch=0;fontColor=#46495D;" vertex="1" parent="cvQm_BtGMacaFVqX-ueh-310">
          <mxGeometry y="90" width="408" height="30" as="geometry" />
        </mxCell>
      </root>
    </mxGraphModel>
  </diagram>
</mxfile>
